<mxfile host="app.diagrams.net" modified="2023-06-06T19:52:33.122Z" agent="Mozilla/5.0 (Windows NT 10.0; Win64; x64) AppleWebKit/537.36 (KHTML, like Gecko) Chrome/114.0.0.0 Safari/537.36" etag="v2iCWPCeTh9K0M3pX2Es" version="21.3.7" type="device">
  <diagram name="Page-1" id="lGCMH7KtWu7vIasApuW6">
    <mxGraphModel dx="1956" dy="1076" grid="1" gridSize="10" guides="1" tooltips="1" connect="1" arrows="1" fold="1" page="1" pageScale="1" pageWidth="850" pageHeight="1100" math="0" shadow="0">
      <root>
        <mxCell id="0" />
        <mxCell id="1" parent="0" />
        <mxCell id="6VntTzewP2smUPdBx_FQ-1" value="&lt;p style=&quot;margin:0px;margin-top:4px;text-align:center;&quot;&gt;&lt;b&gt;Sponsor&lt;/b&gt;&lt;/p&gt;&lt;hr size=&quot;1&quot;&gt;&lt;p style=&quot;margin:0px;margin-left:4px;&quot;&gt;&lt;span style=&quot;background-color: initial;&quot;&gt;- name: string&lt;/span&gt;&lt;br&gt;&lt;/p&gt;&lt;p style=&quot;margin:0px;margin-left:4px;&quot;&gt;- email: string&lt;/p&gt;&lt;p style=&quot;margin:0px;margin-left:4px;&quot;&gt;- password: string&lt;/p&gt;&lt;hr size=&quot;1&quot;&gt;&lt;p style=&quot;border-color: var(--border-color); margin: 0px 0px 0px 4px;&quot;&gt;+ createSponsor(): String&lt;/p&gt;&lt;p style=&quot;border-color: var(--border-color); margin: 0px 0px 0px 4px;&quot;&gt;+ updateSponsor(): String&lt;br style=&quot;border-color: var(--border-color);&quot;&gt;&lt;/p&gt;&lt;p style=&quot;border-color: var(--border-color); margin: 0px 0px 0px 4px;&quot;&gt;+ deleteSponsor(): String&lt;/p&gt;&lt;p style=&quot;border-color: var(--border-color); margin: 0px 0px 0px 4px;&quot;&gt;+ listSponsor(): Sponsor&lt;/p&gt;&lt;p style=&quot;margin:0px;margin-left:4px;&quot;&gt;+ loginApp(): String&lt;/p&gt;" style="verticalAlign=top;align=left;overflow=fill;fontSize=12;fontFamily=Helvetica;html=1;whiteSpace=wrap;" parent="1" vertex="1">
          <mxGeometry x="320" y="670" width="230" height="170" as="geometry" />
        </mxCell>
        <mxCell id="6VntTzewP2smUPdBx_FQ-5" value="&lt;p style=&quot;margin:0px;margin-top:4px;text-align:center;&quot;&gt;&lt;b&gt;Children&lt;/b&gt;&lt;/p&gt;&lt;hr size=&quot;1&quot;&gt;&lt;p style=&quot;margin:0px;margin-left:4px;&quot;&gt;&lt;span style=&quot;background-color: initial;&quot;&gt;- name: string&lt;/span&gt;&lt;br&gt;&lt;/p&gt;&lt;p style=&quot;margin:0px;margin-left:4px;&quot;&gt;- age: int&lt;/p&gt;&lt;p style=&quot;margin:0px;margin-left:4px;&quot;&gt;&lt;span style=&quot;background-color: initial;&quot;&gt;- nickname: string&lt;/span&gt;&lt;br&gt;&lt;/p&gt;&lt;p style=&quot;border-color: var(--border-color); margin: 0px 0px 0px 4px;&quot;&gt;- password: string&lt;/p&gt;&lt;p style=&quot;margin:0px;margin-left:4px;&quot;&gt;- userCreator: string&lt;/p&gt;&lt;hr size=&quot;1&quot;&gt;&lt;p style=&quot;margin:0px;margin-left:4px;&quot;&gt;+ createChild(): String&lt;/p&gt;&lt;p style=&quot;margin:0px;margin-left:4px;&quot;&gt;+ updateChild(): String&lt;br&gt;&lt;/p&gt;&lt;p style=&quot;margin:0px;margin-left:4px;&quot;&gt;+ deleteChild(): String&lt;/p&gt;&lt;p style=&quot;margin:0px;margin-left:4px;&quot;&gt;+ listChild(): List&amp;lt;Child&amp;gt;&lt;/p&gt;&lt;span style=&quot;background-color: initial;&quot;&gt;&amp;nbsp;+ loginApp():String&lt;/span&gt;" style="verticalAlign=top;align=left;overflow=fill;fontSize=12;fontFamily=Helvetica;html=1;whiteSpace=wrap;" parent="1" vertex="1">
          <mxGeometry x="330" y="90" width="210" height="200" as="geometry" />
        </mxCell>
        <mxCell id="6VntTzewP2smUPdBx_FQ-8" value="&lt;p style=&quot;margin:0px;margin-top:4px;text-align:center;&quot;&gt;&lt;b&gt;Task&lt;/b&gt;&lt;/p&gt;&lt;hr size=&quot;1&quot;&gt;&lt;p style=&quot;margin:0px;margin-left:4px;&quot;&gt;- nome: string&lt;/p&gt;&lt;p style=&quot;margin:0px;margin-left:4px;&quot;&gt;- descriptionTask: string&lt;span style=&quot;background-color: initial;&quot;&gt;&lt;br&gt;&lt;/span&gt;&lt;/p&gt;&lt;p style=&quot;margin:0px;margin-left:4px;&quot;&gt;&lt;span style=&quot;background-color: initial;&quot;&gt;- taskWeight: int&lt;/span&gt;&lt;/p&gt;&lt;hr style=&quot;border-color: var(--border-color);&quot; size=&quot;1&quot;&gt;&lt;p style=&quot;border-color: var(--border-color); margin: 0px 0px 0px 4px;&quot;&gt;+ addTask(task: Task): Task&lt;/p&gt;&lt;p style=&quot;border-color: var(--border-color); margin: 0px 0px 0px 4px;&quot;&gt;+ removeTask (external_id: String): String&lt;/p&gt;&lt;p style=&quot;border-color: var(--border-color); margin: 0px 0px 0px 4px;&quot;&gt;+ listAllTask():Task [ ]&lt;/p&gt;&lt;p style=&quot;border-color: var(--border-color); margin: 0px 0px 0px 4px;&quot;&gt;+ listTask(): Task&lt;/p&gt;&lt;p style=&quot;border-color: var(--border-color); margin: 0px 0px 0px 4px;&quot;&gt;+ calculateTask(): float&lt;br&gt;&lt;/p&gt;&lt;p style=&quot;border-color: var(--border-color); margin: 0px 0px 0px 4px;&quot;&gt;+TaskCompleted(external_id: String):bool&lt;/p&gt;" style="verticalAlign=top;align=left;overflow=fill;fontSize=12;fontFamily=Helvetica;html=1;whiteSpace=wrap;" parent="1" vertex="1">
          <mxGeometry x="320" y="380" width="230" height="180" as="geometry" />
        </mxCell>
        <mxCell id="6VntTzewP2smUPdBx_FQ-12" value="&lt;p style=&quot;margin:0px;margin-top:4px;text-align:center;&quot;&gt;&lt;b&gt;TotalMonthlyAmount&lt;/b&gt;&lt;br&gt;&lt;/p&gt;&lt;hr size=&quot;1&quot;&gt;&lt;p style=&quot;margin:0px;margin-left:4px;&quot;&gt;&lt;span style=&quot;background-color: initial;&quot;&gt;- descritionTotal: string&lt;/span&gt;&lt;br&gt;&lt;/p&gt;&lt;p style=&quot;margin:0px;margin-left:4px;&quot;&gt;- totalTotal: int&lt;/p&gt;&lt;hr size=&quot;1&quot;&gt;&lt;p style=&quot;margin:0px;margin-left:4px;&quot;&gt;+ showTotal(): string&lt;/p&gt;&lt;p style=&quot;margin:0px;margin-left:4px;&quot;&gt;&lt;br&gt;&lt;/p&gt;" style="verticalAlign=top;align=left;overflow=fill;fontSize=12;fontFamily=Helvetica;html=1;whiteSpace=wrap;" parent="1" vertex="1">
          <mxGeometry x="50" y="405" width="160" height="120" as="geometry" />
        </mxCell>
        <mxCell id="DOYxekTHyaFO2Itq2V2q-3" value="&lt;p style=&quot;border-color: var(--border-color); margin: 4px 0px 0px; text-align: center;&quot;&gt;&lt;b style=&quot;border-color: var(--border-color);&quot;&gt;Bonus&lt;/b&gt;&lt;/p&gt;&lt;hr style=&quot;border-color: var(--border-color);&quot; size=&quot;1&quot;&gt;&lt;p style=&quot;border-color: var(--border-color); margin: 0px 0px 0px 4px;&quot;&gt;+ applyBonus(value: float):float&lt;/p&gt;&lt;p style=&quot;border-color: var(--border-color); margin: 0px 0px 0px 4px;&quot;&gt;&lt;br style=&quot;border-color: var(--border-color);&quot;&gt;&lt;/p&gt;" style="verticalAlign=top;align=left;overflow=fill;fontSize=12;fontFamily=Helvetica;html=1;whiteSpace=wrap;" parent="1" vertex="1">
          <mxGeometry x="470" y="940" width="200" height="50" as="geometry" />
        </mxCell>
        <mxCell id="DOYxekTHyaFO2Itq2V2q-5" value="&lt;p style=&quot;margin:0px;margin-top:4px;text-align:center;&quot;&gt;&lt;b&gt;Penalties&lt;/b&gt;&lt;br&gt;&lt;/p&gt;&lt;hr size=&quot;1&quot;&gt;&lt;p style=&quot;margin:0px;margin-left:4px;&quot;&gt;&lt;/p&gt;&lt;p style=&quot;margin:0px;margin-left:4px;&quot;&gt;+ apply&lt;span style=&quot;border-color: var(--border-color); text-align: center;&quot;&gt;Penalties&lt;/span&gt;(value: float):float&lt;/p&gt;&lt;p style=&quot;margin:0px;margin-left:4px;&quot;&gt;&lt;br&gt;&lt;/p&gt;" style="verticalAlign=top;align=left;overflow=fill;fontSize=12;fontFamily=Helvetica;html=1;whiteSpace=wrap;" parent="1" vertex="1">
          <mxGeometry x="220" y="940" width="200" height="50" as="geometry" />
        </mxCell>
        <mxCell id="DOYxekTHyaFO2Itq2V2q-7" value="1**n" style="endArrow=none;html=1;rounded=0;exitX=0.5;exitY=1;exitDx=0;exitDy=0;entryX=1;entryY=0.5;entryDx=0;entryDy=0;" parent="1" source="DOYxekTHyaFO2Itq2V2q-9" target="6VntTzewP2smUPdBx_FQ-1" edge="1">
          <mxGeometry x="-0.8933" y="16" width="50" height="50" relative="1" as="geometry">
            <mxPoint x="639" y="470" as="sourcePoint" />
            <mxPoint x="625" y="600" as="targetPoint" />
            <mxPoint as="offset" />
          </mxGeometry>
        </mxCell>
        <mxCell id="DOYxekTHyaFO2Itq2V2q-9" value="&lt;p style=&quot;margin:0px;margin-top:4px;text-align:center;&quot;&gt;&lt;b&gt;SponsorChildren&lt;/b&gt;&lt;/p&gt;&lt;hr size=&quot;1&quot;&gt;&lt;p style=&quot;margin:0px;margin-left:4px;&quot;&gt;&lt;span style=&quot;background-color: initial;&quot;&gt;- fk_idSponsor: int&lt;/span&gt;&lt;br&gt;&lt;/p&gt;&lt;p style=&quot;margin:0px;margin-left:4px;&quot;&gt;- fk_idChildren: int&lt;/p&gt;&lt;hr size=&quot;1&quot;&gt;&lt;p style=&quot;margin:0px;margin-left:4px;&quot;&gt;&lt;br&gt;&lt;/p&gt;" style="verticalAlign=top;align=left;overflow=fill;fontSize=12;fontFamily=Helvetica;html=1;whiteSpace=wrap;" parent="1" vertex="1">
          <mxGeometry x="650" y="425" width="160" height="90" as="geometry" />
        </mxCell>
        <mxCell id="DOYxekTHyaFO2Itq2V2q-10" value="1**n" style="endArrow=none;html=1;rounded=0;entryX=0.5;entryY=0;entryDx=0;entryDy=0;exitX=1;exitY=0.5;exitDx=0;exitDy=0;" parent="1" source="6VntTzewP2smUPdBx_FQ-5" target="DOYxekTHyaFO2Itq2V2q-9" edge="1">
          <mxGeometry x="0.8376" y="24" width="50" height="50" relative="1" as="geometry">
            <mxPoint x="435" y="425" as="sourcePoint" />
            <mxPoint x="545" y="440" as="targetPoint" />
            <mxPoint as="offset" />
          </mxGeometry>
        </mxCell>
        <mxCell id="DOYxekTHyaFO2Itq2V2q-13" value="1**1" style="endArrow=none;html=1;rounded=0;entryX=0.5;entryY=1;entryDx=0;entryDy=0;exitX=0.5;exitY=0;exitDx=0;exitDy=0;" parent="1" source="6VntTzewP2smUPdBx_FQ-8" target="6VntTzewP2smUPdBx_FQ-5" edge="1">
          <mxGeometry x="0.5556" y="-15" width="50" height="50" relative="1" as="geometry">
            <mxPoint x="155" y="640" as="sourcePoint" />
            <mxPoint x="205" y="590" as="targetPoint" />
            <mxPoint as="offset" />
          </mxGeometry>
        </mxCell>
        <mxCell id="DOYxekTHyaFO2Itq2V2q-14" value="1**1" style="endArrow=none;html=1;rounded=0;entryX=0.75;entryY=1;entryDx=0;entryDy=0;exitX=-0.004;exitY=0.532;exitDx=0;exitDy=0;exitPerimeter=0;" parent="1" source="6VntTzewP2smUPdBx_FQ-1" target="6VntTzewP2smUPdBx_FQ-12" edge="1">
          <mxGeometry x="-0.726" y="13" width="50" height="50" relative="1" as="geometry">
            <mxPoint x="95" y="850" as="sourcePoint" />
            <mxPoint x="269" y="620" as="targetPoint" />
            <mxPoint as="offset" />
          </mxGeometry>
        </mxCell>
        <mxCell id="DOYxekTHyaFO2Itq2V2q-15" value="1**1" style="endArrow=none;html=1;rounded=0;" parent="1" source="6VntTzewP2smUPdBx_FQ-1" target="6VntTzewP2smUPdBx_FQ-8" edge="1">
          <mxGeometry x="-0.7038" y="-18" width="50" height="50" relative="1" as="geometry">
            <mxPoint x="330" y="750" as="sourcePoint" />
            <mxPoint x="30" y="595" as="targetPoint" />
            <mxPoint as="offset" />
          </mxGeometry>
        </mxCell>
        <mxCell id="DOYxekTHyaFO2Itq2V2q-18" value="1**n" style="text;html=1;strokeColor=none;fillColor=none;align=center;verticalAlign=middle;whiteSpace=wrap;rounded=0;" parent="1" vertex="1">
          <mxGeometry x="420" y="350" width="60" height="30" as="geometry" />
        </mxCell>
        <mxCell id="DOYxekTHyaFO2Itq2V2q-21" value="1**n" style="text;html=1;strokeColor=none;fillColor=none;align=center;verticalAlign=middle;whiteSpace=wrap;rounded=0;" parent="1" vertex="1">
          <mxGeometry x="130" y="530" width="60" height="30" as="geometry" />
        </mxCell>
        <mxCell id="DOYxekTHyaFO2Itq2V2q-23" value="1**n" style="text;html=1;strokeColor=none;fillColor=none;align=center;verticalAlign=middle;whiteSpace=wrap;rounded=0;" parent="1" vertex="1">
          <mxGeometry x="420" y="560" width="60" height="30" as="geometry" />
        </mxCell>
        <mxCell id="DOYxekTHyaFO2Itq2V2q-25" value="" style="endArrow=none;html=1;rounded=0;entryX=0;entryY=0.5;entryDx=0;entryDy=0;exitX=1.002;exitY=0.545;exitDx=0;exitDy=0;exitPerimeter=0;" parent="1" source="6VntTzewP2smUPdBx_FQ-12" target="6VntTzewP2smUPdBx_FQ-8" edge="1">
          <mxGeometry width="50" height="50" relative="1" as="geometry">
            <mxPoint x="200" y="470" as="sourcePoint" />
            <mxPoint x="330" y="475" as="targetPoint" />
          </mxGeometry>
        </mxCell>
        <mxCell id="DOYxekTHyaFO2Itq2V2q-29" value="1**n" style="text;html=1;strokeColor=none;fillColor=none;align=center;verticalAlign=middle;whiteSpace=wrap;rounded=0;" parent="1" vertex="1">
          <mxGeometry x="540" y="190" width="60" height="30" as="geometry" />
        </mxCell>
        <mxCell id="DOYxekTHyaFO2Itq2V2q-30" value="1**n" style="text;html=1;strokeColor=none;fillColor=none;align=center;verticalAlign=middle;whiteSpace=wrap;rounded=0;" parent="1" vertex="1">
          <mxGeometry x="550" y="720" width="60" height="30" as="geometry" />
        </mxCell>
        <mxCell id="DOYxekTHyaFO2Itq2V2q-31" value="1**1" style="text;html=1;strokeColor=none;fillColor=none;align=center;verticalAlign=middle;whiteSpace=wrap;rounded=0;" parent="1" vertex="1">
          <mxGeometry x="210" y="470" width="60" height="30" as="geometry" />
        </mxCell>
        <mxCell id="DOYxekTHyaFO2Itq2V2q-32" value="1**n" style="text;html=1;strokeColor=none;fillColor=none;align=center;verticalAlign=middle;whiteSpace=wrap;rounded=0;" parent="1" vertex="1">
          <mxGeometry x="270" y="470" width="60" height="30" as="geometry" />
        </mxCell>
        <mxCell id="DOYxekTHyaFO2Itq2V2q-38" value="" style="endArrow=none;html=1;rounded=0;entryX=0.5;entryY=0;entryDx=0;entryDy=0;exitX=0.25;exitY=1;exitDx=0;exitDy=0;" parent="1" source="6VntTzewP2smUPdBx_FQ-1" target="DOYxekTHyaFO2Itq2V2q-5" edge="1">
          <mxGeometry width="50" height="50" relative="1" as="geometry">
            <mxPoint x="400" y="880" as="sourcePoint" />
            <mxPoint x="270" y="730" as="targetPoint" />
          </mxGeometry>
        </mxCell>
        <mxCell id="DOYxekTHyaFO2Itq2V2q-39" value="" style="endArrow=none;html=1;rounded=0;entryX=0.5;entryY=0;entryDx=0;entryDy=0;exitX=0.804;exitY=1.001;exitDx=0;exitDy=0;exitPerimeter=0;" parent="1" source="6VntTzewP2smUPdBx_FQ-1" target="DOYxekTHyaFO2Itq2V2q-3" edge="1">
          <mxGeometry width="50" height="50" relative="1" as="geometry">
            <mxPoint x="490" y="840" as="sourcePoint" />
            <mxPoint x="220" y="727" as="targetPoint" />
          </mxGeometry>
        </mxCell>
        <mxCell id="DOYxekTHyaFO2Itq2V2q-40" value="1**n" style="text;html=1;strokeColor=none;fillColor=none;align=center;verticalAlign=middle;whiteSpace=wrap;rounded=0;" parent="1" vertex="1">
          <mxGeometry x="570" y="900" width="60" height="30" as="geometry" />
        </mxCell>
        <mxCell id="DOYxekTHyaFO2Itq2V2q-41" value="1**1" style="text;html=1;strokeColor=none;fillColor=none;align=center;verticalAlign=middle;whiteSpace=wrap;rounded=0;" parent="1" vertex="1">
          <mxGeometry x="520" y="850" width="60" height="30" as="geometry" />
        </mxCell>
        <mxCell id="DOYxekTHyaFO2Itq2V2q-42" value="1**n" style="text;html=1;strokeColor=none;fillColor=none;align=center;verticalAlign=middle;whiteSpace=wrap;rounded=0;" parent="1" vertex="1">
          <mxGeometry x="260" y="900" width="60" height="30" as="geometry" />
        </mxCell>
        <mxCell id="DOYxekTHyaFO2Itq2V2q-46" value="1**1" style="text;html=1;strokeColor=none;fillColor=none;align=center;verticalAlign=middle;whiteSpace=wrap;rounded=0;" parent="1" vertex="1">
          <mxGeometry x="295" y="850" width="60" height="30" as="geometry" />
        </mxCell>
        <mxCell id="DOYxekTHyaFO2Itq2V2q-50" value="" style="endArrow=none;html=1;rounded=0;exitX=0;exitY=0.5;exitDx=0;exitDy=0;entryX=0.572;entryY=0.001;entryDx=0;entryDy=0;entryPerimeter=0;" parent="1" source="6VntTzewP2smUPdBx_FQ-5" target="6VntTzewP2smUPdBx_FQ-12" edge="1">
          <mxGeometry x="-0.6947" y="-5" width="50" height="50" relative="1" as="geometry">
            <mxPoint x="356" y="266" as="sourcePoint" />
            <mxPoint x="189.06000000000017" y="310.2700000000001" as="targetPoint" />
            <mxPoint x="1" as="offset" />
          </mxGeometry>
        </mxCell>
        <mxCell id="DOYxekTHyaFO2Itq2V2q-52" value="1**1" style="text;html=1;strokeColor=none;fillColor=none;align=center;verticalAlign=middle;whiteSpace=wrap;rounded=0;" parent="1" vertex="1">
          <mxGeometry x="250" y="190" width="60" height="30" as="geometry" />
        </mxCell>
        <mxCell id="DOYxekTHyaFO2Itq2V2q-53" value="1**n" style="text;html=1;strokeColor=none;fillColor=none;align=center;verticalAlign=middle;whiteSpace=wrap;rounded=0;" parent="1" vertex="1">
          <mxGeometry x="110" y="360" width="60" height="30" as="geometry" />
        </mxCell>
      </root>
    </mxGraphModel>
  </diagram>
</mxfile>
